<svg preserveAspectRatio="xMidYMid meet" data-bbox="200 15 8348.017 2431" xmlns="http://www.w3.org/2000/svg" viewBox="0 0 8574 2646" height="60" width="80" data-type="ugc" role="presentation" aria-hidden="true" aria-labelledby="svgcid-1ttdmb-aays83"><title id="svgcid-1ttdmb-aays83"></title>
    <g>
        <g filter="url(#svgcid--t0v6g7-4qcut8)">
            <path fill="#033F85" d="M8136.04 1505.39c.38-415.14-.38-754.39-2.3-754.39-1.54 0-9.97 6.63-18.02 15.103-8.44 8.472-36.82 33.52-63.28 55.989-26.46 22.102-63.27 51.939-82.45 66.304-19.17 13.998-49.08 34.994-67.11 46.781-18.02 11.419-54.07 33.152-80.53 48.623-26.46 15.103-70.56 39.41-97.78 53.78-27.61 14-71.33 35.36-97.79 46.78-26.46 11.79-74.78 31.68-107.37 44.57l-59.44 22.84c-1.92 1031.03-1.15 1103.22 3.83 1122.38 3.07 12.15 11.12 32.04 17.26 44.2 6.13 12.16 19.94 31.31 29.91 42.36 10.35 11.05 28.76 26.89 41.41 34.99 12.28 8.11 36.05 19.16 52.16 24.68l29.91 10.32c318.67 0 322.5 0 347.81-8.47 14.58-4.42 34.52-13.26 45.26-19.16 10.35-5.52 30.67-21.36 44.48-34.62 14.95-14 30.29-33.52 36.81-46.42 6.52-12.15 14.96-31.31 18.79-42.36 6.91-19.52 7.29-50.46 8.44-774.28Z"></path>
        </g>
        <g filter="url(#svgcid--xpahquezcs0d)">
            <path fill="#004899" d="m7321.53 1715.37-.76-532.37-72.85 19.69c-40.25 10.98-116.17 29.15-168.69 40.51-52.91 11.74-129.59 27.27-170.61 34.46-41.02 7.57-108.5 18.55-149.52 24.61-41.02 6.06-83.58 12.12-93.93 13.63l-19.17 2.27v936.76c13.04 38.24 23 59.45 30.67 71.94 7.67 12.5 21.09 29.92 29.91 39 8.81 9.09 26.45 23.1 39.1 31.43 12.65 8.33 36.42 19.31 52.53 24.23 29.9 9.47 30.28 9.47 184.02 9.47 127.67 0 158.34-1.14 177.51-6.06 12.65-3.41 34.89-12.11 49.84-19.69 16.1-8.71 36.42-23.85 51.76-38.62 15.34-15.14 29.9-34.46 37.19-49.22 6.9-13.63 15.33-34.84 18.4-47.33 4.99-19.69 5.75-90.5 4.6-554.71Z"></path>
        </g>
        <g filter="url(#svgcid-vwhs4z-q3mgtc)">
            <path fill="#0071B9" d="M6508.08 2263.78 6510 1346c-34.15.75-75.97 3.39-115.11 6.03s-115.11 6.78-168.83 8.67c-53.72 2.26-138.91 4.15-188.79 4.15-70.6 0-91.32-1.14-91.32-4.53 0-3.77-12.28-4.14-56.41-1.88-37.6 1.88-57.55 4.52-59.47 7.54-1.54 2.63-3.07 202.4-3.07 444.37 0 242.36 1.15 440.99 3.07 441.74 1.53.76 4.22 7.92 5.76 15.83 1.91 8.3 6.9 23 11.51 33.55 4.22 10.18 14.19 28.27 21.87 39.57 7.67 11.31 23.4 28.65 34.92 38.07 11.51 9.8 31.08 22.62 43.74 29.02 12.66 6.41 33.38 14.33 46.04 17.72 19.57 4.9 48.35 5.65 184.18 4.9 150.03-1.13 162.69-1.51 182.26-8.67 11.9-4.15 31.47-13.57 43.75-20.73 12.28-7.16 31.84-22.61 43.36-33.92 11.51-11.31 26.09-29.02 31.84-39.58 6.14-10.17 14.97-29.02 19.96-41.46l8.82-22.61Z"></path>
        </g>
        <g filter="url(#svgcid--6fhjo2loub7p)">
            <path fill="#03A413" d="M8472.37 24.851c-2.69-4.052-8.82-8.103-14.19-9.208-4.98-1.106-23.78-.737-41.8.736-18.02 1.474-80.91 5.894-139.97 10.314-59.05 4.052-116.96 8.104-128.46 9.21-11.51.736-33.75 2.578-48.71 3.683-27.61 1.841-28.37 2.21-40.64 17.68-7.29 8.473-37.59 46.413-67.11 84.722-31.83 40.151-54.46 72.198-54.46 77.355-.38 4.42 2.69 11.05 6.52 14.366 4.6 4.42 13.42 6.63 27.23 6.63 10.74 0 31.44-1.473 46.02-3.315 14.18-2.21 45.63-5.525 69.79-7.736 24.16-2.21 63.27-6.63 86.28-9.209 23.01-2.946 64.43-5.525 92.04-6.262l49.47-1.105c16.1 68.514 25.31 113.454 31.06 143.659s16.1 86.932 23.39 125.24c7.29 38.309 14.57 71.461 16.49 73.671 1.92 2.211 6.52 4.789 10.35 5.894 4.22 1.105 11.12.737 16.11-.737 4.6-1.841 36.43-39.414 70.94-83.248 34.52-44.202 63.66-82.511 65.19-84.721 1.54-2.579-13.8-84.722-34.13-182.336-19.94-97.982-38.73-181.23-41.41-185.283Z"></path>
            <path stroke-width="20" stroke="#03A413" fill="#03A413" d="m8323.83 225.742-1.8-7.742h-7.94c-20.77 0-49.49 1.093-76.43 2.173l-.06.003-.07.003c-8.71.466-17.03.893-24.41 1.271-4.06.208-7.83.401-11.21.578-4.76.248-8.76.464-11.7.641-1.47.089-2.71.17-3.67.243l-.03.002c-.47.036-1.18.09-1.87.176a11.5 11.5 0 0 0-5.63 1.978 11.248 11.248 0 0 0-4.34 5.848c-.98 3.011-.57 5.807.05 7.821-.01.304-.02.705-.06 1.215-.13 2.094-.45 5.168-.96 9.076-1.02 7.764-2.7 18.23-4.77 29.482l-.02.08-.01.08c-3.72 22.262-12.36 58.309-18.74 80.017-6.33 21.555-19.87 58.364-29.67 81.973-9.85 23.74-22.63 51.905-28.12 62.316-5.47 10.396-19.69 33.856-31.36 51.376-12.13 17.626-32.11 45.886-44.87 62.636-13.06 16.634-42.05 49.521-64.69 73.163-22.62 23.62-55.46 55.148-72.35 70.117-17.33 15.017-49.05 40.823-70.89 57.263l-.04.031-.04.032c-21.7 16.694-70.07 49.706-107.58 73.445-37.48 23.717-91.26 55.346-119.14 70.367-27.83 14.996-82.33 41.224-120.97 58.484-38.67 17.28-87.18 38.14-108.02 46.77-20.8 8.26-65.83 25.14-100.36 37.75-34.53 12.24-90.62 31.31-125.04 42.08-34.47 10.79-94.76 28.42-134.49 38.84l-.04.01-.04.01c-39.78 10.79-110.35 28.44-157.37 39.23-47.06 10.81-116.82 25.56-155.36 32.38-38.85 6.87-82.24 15.18-97.1 18.07l-.11.02-.11.03c-14.4 3.15-59.26 10.32-100 16.1l-.05.01h-.04c-40.54 6.12-113.41 15.85-161.29 21.98-47.88 5.77-121.46 14.05-163.08 17.64h-.04l-.05.01c-41.69 3.96-116.09 9.72-165.06 12.96-49.06 3.25-101.8 6.49-116.9 7.21l-.12.01-.13.01c-7.72.56-14.98 1.51-20.47 2.6-2.68.53-5.27 1.16-7.37 1.92-.98.35-2.38.92-3.71 1.79-.67.44-1.73 1.22-2.72 2.43-.99 1.23-2.37 3.5-2.37 6.64 0 3.59 1.81 6.05 3.01 7.25 1.15 1.17 2.34 1.81 2.96 2.12 1.28.63 2.55.96 3.3 1.14 1.67.39 3.73.68 5.89.91 4.45.48 10.82.87 18.87 1.19 16.15.64 39.78 1 69.86 1 52.22 0 134.84-1.81 183.97-3.61 49.14-1.81 130.58-6.15 180.76-9.04h.07c50.1-3.24 117.9-7.94 150.45-11.21 32.44-2.9 92.53-9.4 133.27-14.46 40.8-4.7 107.01-13.73 146.65-19.88 40.02-5.79 100.53-15.54 135.21-21.7 34.71-6.15 105.5-19.88 158.06-31.09 52.22-10.85 135.6-30.36 184.83-43.4 49.15-12.66 116.96-31.83 150.61-42.35l.05-.02.04-.01c33.64-10.89 96.13-32.95 139.2-49.23l.04-.02.03-.01c43.01-16.62 100.53-39.76 127.67-51.37l.05-.02.06-.03c27.15-11.98 72.17-33.35 99.32-47.14l.05-.02.04-.03c27.1-14.12 70.91-37.991 97.22-52.832l.05-.025.04-.026c26.24-15.162 60.58-35.441 76.33-45.282l.07-.044.07-.045c15.7-10.18 42.43-28.302 59.27-40.295 16.97-12.082 48.69-36.753 70.82-54.863 22.23-17.828 55.43-46.446 74.18-63.517l.04-.035.04-.035c18.42-17.124 49.84-48.754 69.15-71.11 19.43-22.062 45.43-52.909 57.8-69.049 12.35-16.12 31.89-44.128 43.42-62.001 11.6-17.985 29.99-50.002 41.11-71.12 11-20.88 24.87-48.635 30.41-62.146l.03-.063 9.85-23.362 1.19-2.829-.6-3.012c-17.82-89.25-26.62-131.76-31.64-151.924a.23.23 0 0 0-.02-.079l-8.32-35.924ZM5852.79 1357.41s.02.01.06.02c-.04-.01-.06-.01-.06-.02Zm1.59 17.01s.02 0 .05-.02c-.03.02-.05.02-.05.02Z"></path>
        </g>
    </g>
</svg>
