<svg preserveAspectRatio="xMidYMid meet" data-bbox="200 15 8348.017 2431" xmlns="http://www.w3.org/2000/svg" viewBox="0 0 8574 2646" height="50" width="150" data-type="ugc" role="presentation" aria-hidden="true" aria-labelledby="svgcid-1ttdmb-aays83"><title id="svgcid-1ttdmb-aays83"></title>
    <g>
        <g filter="url(#svgcid--t0v6g7-4qcut8)">
            <path fill="#033F85" d="M8136.04 1505.39c.38-415.14-.38-754.39-2.3-754.39-1.54 0-9.97 6.63-18.02 15.103-8.44 8.472-36.82 33.52-63.28 55.989-26.46 22.102-63.27 51.939-82.45 66.304-19.17 13.998-49.08 34.994-67.11 46.781-18.02 11.419-54.07 33.152-80.53 48.623-26.46 15.103-70.56 39.41-97.78 53.78-27.61 14-71.33 35.36-97.79 46.78-26.46 11.79-74.78 31.68-107.37 44.57l-59.44 22.84c-1.92 1031.03-1.15 1103.22 3.83 1122.38 3.07 12.15 11.12 32.04 17.26 44.2 6.13 12.16 19.94 31.31 29.91 42.36 10.35 11.05 28.76 26.89 41.41 34.99 12.28 8.11 36.05 19.16 52.16 24.68l29.91 10.32c318.67 0 322.5 0 347.81-8.47 14.58-4.42 34.52-13.26 45.26-19.16 10.35-5.52 30.67-21.36 44.48-34.62 14.95-14 30.29-33.52 36.81-46.42 6.52-12.15 14.96-31.31 18.79-42.36 6.91-19.52 7.29-50.46 8.44-774.28Z"></path>
        </g>
        <g filter="url(#svgcid--xpahquezcs0d)">
            <path fill="#004899" d="m7321.53 1715.37-.76-532.37-72.85 19.69c-40.25 10.98-116.17 29.15-168.69 40.51-52.91 11.74-129.59 27.27-170.61 34.46-41.02 7.57-108.5 18.55-149.52 24.61-41.02 6.06-83.58 12.12-93.93 13.63l-19.17 2.27v936.76c13.04 38.24 23 59.45 30.67 71.94 7.67 12.5 21.09 29.92 29.91 39 8.81 9.09 26.45 23.1 39.1 31.43 12.65 8.33 36.42 19.31 52.53 24.23 29.9 9.47 30.28 9.47 184.02 9.47 127.67 0 158.34-1.14 177.51-6.06 12.65-3.41 34.89-12.11 49.84-19.69 16.1-8.71 36.42-23.85 51.76-38.62 15.34-15.14 29.9-34.46 37.19-49.22 6.9-13.63 15.33-34.84 18.4-47.33 4.99-19.69 5.75-90.5 4.6-554.71Z"></path>
        </g>
        <g filter="url(#svgcid-vwhs4z-q3mgtc)">
            <path fill="#0071B9" d="M6508.08 2263.78 6510 1346c-34.15.75-75.97 3.39-115.11 6.03s-115.11 6.78-168.83 8.67c-53.72 2.26-138.91 4.15-188.79 4.15-70.6 0-91.32-1.14-91.32-4.53 0-3.77-12.28-4.14-56.41-1.88-37.6 1.88-57.55 4.52-59.47 7.54-1.54 2.63-3.07 202.4-3.07 444.37 0 242.36 1.15 440.99 3.07 441.74 1.53.76 4.22 7.92 5.76 15.83 1.91 8.3 6.9 23 11.51 33.55 4.22 10.18 14.19 28.27 21.87 39.57 7.67 11.31 23.4 28.65 34.92 38.07 11.51 9.8 31.08 22.62 43.74 29.02 12.66 6.41 33.38 14.33 46.04 17.72 19.57 4.9 48.35 5.65 184.18 4.9 150.03-1.13 162.69-1.51 182.26-8.67 11.9-4.15 31.47-13.57 43.75-20.73 12.28-7.16 31.84-22.61 43.36-33.92 11.51-11.31 26.09-29.02 31.84-39.58 6.14-10.17 14.97-29.02 19.96-41.46l8.82-22.61Z"></path>
        </g>
        <g filter="url(#svgcid--6fhjo2loub7p)">
            <path fill="#03A413" d="M8472.37 24.851c-2.69-4.052-8.82-8.103-14.19-9.208-4.98-1.106-23.78-.737-41.8.736-18.02 1.474-80.91 5.894-139.97 10.314-59.05 4.052-116.96 8.104-128.46 9.21-11.51.736-33.75 2.578-48.71 3.683-27.61 1.841-28.37 2.21-40.64 17.68-7.29 8.473-37.59 46.413-67.11 84.722-31.83 40.151-54.46 72.198-54.46 77.355-.38 4.42 2.69 11.05 6.52 14.366 4.6 4.42 13.42 6.63 27.23 6.63 10.74 0 31.44-1.473 46.02-3.315 14.18-2.21 45.63-5.525 69.79-7.736 24.16-2.21 63.27-6.63 86.28-9.209 23.01-2.946 64.43-5.525 92.04-6.262l49.47-1.105c16.1 68.514 25.31 113.454 31.06 143.659s16.1 86.932 23.39 125.24c7.29 38.309 14.57 71.461 16.49 73.671 1.92 2.211 6.52 4.789 10.35 5.894 4.22 1.105 11.12.737 16.11-.737 4.6-1.841 36.43-39.414 70.94-83.248 34.52-44.202 63.66-82.511 65.19-84.721 1.54-2.579-13.8-84.722-34.13-182.336-19.94-97.982-38.73-181.23-41.41-185.283Z"></path>
            <path stroke-width="20" stroke="#03A413" fill="#03A413" d="m8323.83 225.742-1.8-7.742h-7.94c-20.77 0-49.49 1.093-76.43 2.173l-.06.003-.07.003c-8.71.466-17.03.893-24.41 1.271-4.06.208-7.83.401-11.21.578-4.76.248-8.76.464-11.7.641-1.47.089-2.71.17-3.67.243l-.03.002c-.47.036-1.18.09-1.87.176a11.5 11.5 0 0 0-5.63 1.978 11.248 11.248 0 0 0-4.34 5.848c-.98 3.011-.57 5.807.05 7.821-.01.304-.02.705-.06 1.215-.13 2.094-.45 5.168-.96 9.076-1.02 7.764-2.7 18.23-4.77 29.482l-.02.08-.01.08c-3.72 22.262-12.36 58.309-18.74 80.017-6.33 21.555-19.87 58.364-29.67 81.973-9.85 23.74-22.63 51.905-28.12 62.316-5.47 10.396-19.69 33.856-31.36 51.376-12.13 17.626-32.11 45.886-44.87 62.636-13.06 16.634-42.05 49.521-64.69 73.163-22.62 23.62-55.46 55.148-72.35 70.117-17.33 15.017-49.05 40.823-70.89 57.263l-.04.031-.04.032c-21.7 16.694-70.07 49.706-107.58 73.445-37.48 23.717-91.26 55.346-119.14 70.367-27.83 14.996-82.33 41.224-120.97 58.484-38.67 17.28-87.18 38.14-108.02 46.77-20.8 8.26-65.83 25.14-100.36 37.75-34.53 12.24-90.62 31.31-125.04 42.08-34.47 10.79-94.76 28.42-134.49 38.84l-.04.01-.04.01c-39.78 10.79-110.35 28.44-157.37 39.23-47.06 10.81-116.82 25.56-155.36 32.38-38.85 6.87-82.24 15.18-97.1 18.07l-.11.02-.11.03c-14.4 3.15-59.26 10.32-100 16.1l-.05.01h-.04c-40.54 6.12-113.41 15.85-161.29 21.98-47.88 5.77-121.46 14.05-163.08 17.64h-.04l-.05.01c-41.69 3.96-116.09 9.72-165.06 12.96-49.06 3.25-101.8 6.49-116.9 7.21l-.12.01-.13.01c-7.72.56-14.98 1.51-20.47 2.6-2.68.53-5.27 1.16-7.37 1.92-.98.35-2.38.92-3.71 1.79-.67.44-1.73 1.22-2.72 2.43-.99 1.23-2.37 3.5-2.37 6.64 0 3.59 1.81 6.05 3.01 7.25 1.15 1.17 2.34 1.81 2.96 2.12 1.28.63 2.55.96 3.3 1.14 1.67.39 3.73.68 5.89.91 4.45.48 10.82.87 18.87 1.19 16.15.64 39.78 1 69.86 1 52.22 0 134.84-1.81 183.97-3.61 49.14-1.81 130.58-6.15 180.76-9.04h.07c50.1-3.24 117.9-7.94 150.45-11.21 32.44-2.9 92.53-9.4 133.27-14.46 40.8-4.7 107.01-13.73 146.65-19.88 40.02-5.79 100.53-15.54 135.21-21.7 34.71-6.15 105.5-19.88 158.06-31.09 52.22-10.85 135.6-30.36 184.83-43.4 49.15-12.66 116.96-31.83 150.61-42.35l.05-.02.04-.01c33.64-10.89 96.13-32.95 139.2-49.23l.04-.02.03-.01c43.01-16.62 100.53-39.76 127.67-51.37l.05-.02.06-.03c27.15-11.98 72.17-33.35 99.32-47.14l.05-.02.04-.03c27.1-14.12 70.91-37.991 97.22-52.832l.05-.025.04-.026c26.24-15.162 60.58-35.441 76.33-45.282l.07-.044.07-.045c15.7-10.18 42.43-28.302 59.27-40.295 16.97-12.082 48.69-36.753 70.82-54.863 22.23-17.828 55.43-46.446 74.18-63.517l.04-.035.04-.035c18.42-17.124 49.84-48.754 69.15-71.11 19.43-22.062 45.43-52.909 57.8-69.049 12.35-16.12 31.89-44.128 43.42-62.001 11.6-17.985 29.99-50.002 41.11-71.12 11-20.88 24.87-48.635 30.41-62.146l.03-.063 9.85-23.362 1.19-2.829-.6-3.012c-17.82-89.25-26.62-131.76-31.64-151.924a.23.23 0 0 0-.02-.079l-8.32-35.924ZM5852.79 1357.41s.02.01.06.02c-.04-.01-.06-.01-.06-.02Zm1.59 17.01s.02 0 .05-.02c-.03.02-.05.02-.05.02Z"></path>
        </g>
        <g filter="url(#svgcid-a69ct5-er3o2t)">
            <path fill="#033F85" d="M623 2431c-28 0-51-8.5-69-25.5-18-18-27-40-27-66v-870h195v870c0 26-9.5 48-28.5 66-18 17-41.5 25.5-70.5 25.5Zm-331.5-877.5c-26 0-48-8-66-24-17-16-25.5-37-25.5-63s8.5-46.5 25.5-61.5c18-16 40-24 66-24h666c26 0 47.5 8 64.5 24 18 16 27 37 27 63s-9 47-27 63c-17 15-38.5 22.5-64.5 22.5h-666Zm900.61 877.5c-26 0-47.5-8.5-64.5-25.5-17-18-25.5-40-25.5-66V1720c0-26 8.5-47.5 25.5-64.5 17-18 38.5-27 64.5-27s47.5 9 64.5 27c17 17 25.5 38.5 25.5 64.5v141l-10.5-100.5c11-24 25-45 42-63 18-19 38-34.5 60-46.5 22-13 45.5-22.5 70.5-28.5s50-9 75-9c30 0 55 8.5 75 25.5 21 17 31.5 37 31.5 60 0 33-8.5 57-25.5 72-17 14-35.5 21-55.5 21-19 0-36.5-3.5-52.5-10.5-15-7-32.5-10.5-52.5-10.5-18 0-36.5 4.5-55.5 13.5-18 8-35 21-51 39-15 18-27.5 40.5-37.5 67.5-9 26-13.5 57-13.5 93v355.5c0 26-8.5 48-25.5 66-17 17-38.5 25.5-64.5 25.5Zm1199.81-817.5c26 0 47.5 8.5 64.5 25.5s25.5 39 25.5 66v634.5c0 26-8.5 48-25.5 66-17 17-38.5 25.5-64.5 25.5s-47.5-8.5-64.5-25.5c-17-18-25.5-40-25.5-66V2266l33 13.5c0 13-7 29-21 48-14 18-33 36-57 54s-52.5 33.5-85.5 46.5c-32 12-67 18-105 18-69 0-131.5-17.5-187.5-52.5-56-36-100.5-85-133.5-147-32-63-48-135-48-216 0-82 16-154 48-216 33-63 77-112 132-147 55-36 116-54 183-54 43 0 82.5 6.5 118.5 19.5s67 29.5 93 49.5c27 20 47.5 40.5 61.5 61.5 15 20 22.5 37 22.5 51l-54 19.5V1705c0-26 8.5-47.5 25.5-64.5 17-18 38.5-27 64.5-27Zm-303 667.5c44 0 82.5-11 115.5-33s58.5-52 76.5-90c19-38 28.5-80.5 28.5-127.5 0-48-9.5-91-28.5-129-18-38-43.5-68-76.5-90s-71.5-33-115.5-33c-43 0-81 11-114 33s-59 52-78 90c-18 38-27 81-27 129 0 47 9 89.5 27 127.5 19 38 45 68 78 90s71 33 114 33Zm1244.9-960c26 0 47.5 8.5 64.5 25.5s25.5 39 25.5 66v927c0 26-8.5 48-25.5 66-17 17-38.5 25.5-64.5 25.5s-47.5-8.5-64.5-25.5c-17-18-25.5-40-25.5-66V2266l33 13.5c0 13-7 29-21 48-14 18-33 36-57 54s-52.5 33.5-85.5 46.5c-32 12-67 18-105 18-69 0-131.5-17.5-187.5-52.5-56-36-100.5-85-133.5-147-32-63-48-135-48-216 0-82 16-154 48-216 33-63 77-112 132-147 55-36 116-54 183-54 43 0 82.5 6.5 118.5 19.5s67 29.5 93 49.5c27 20 47.5 40.5 61.5 61.5 15 20 22.5 37 22.5 51l-54 19.5v-402c0-26 8.5-47.5 25.5-64.5 17-18 38.5-27 64.5-27Zm-303 960c44 0 82.5-11 115.5-33s58.5-52 76.5-90c19-38 28.5-80.5 28.5-127.5 0-48-9.5-91-28.5-129-18-38-43.5-68-76.5-90s-71.5-33-115.5-33c-43 0-81 11-114 33s-59 52-78 90c-18 38-27 81-27 129 0 47 9 89.5 27 127.5 19 38 45 68 78 90s71 33 114 33Zm965.89 165c-85 0-159-17.5-222-52.5-62-36-110-84.5-144-145.5-33-61-49.5-130-49.5-207 0-90 18-166.5 54-229.5 37-64 85-113 144-147s121.5-51 187.5-51c51 0 99 10.5 144 31.5 46 21 86.5 50 121.5 87 35 36 62.5 78 82.5 126 21 48 31.5 99 31.5 153-1 24-10.5 43.5-28.5 58.5s-39 22.5-63 22.5h-573l-45-150h550.5l-33 30v-40.5c-2-29-12.5-55-31.5-78-18-23-41-41-69-54-27-14-56-21-87-21-30 0-58 4-84 12s-48.5 21.5-67.5 40.5-34 44.5-45 76.5-16.5 72.5-16.5 121.5c0 54 11 100 33 138 23 37 52 65.5 87 85.5 36 19 74 28.5 114 28.5 37 0 66.5-3 88.5-9s39.5-13 52.5-21c14-9 26.5-16.5 37.5-22.5 18-9 35-13.5 51-13.5 22 0 40 7.5 54 22.5 15 15 22.5 32.5 22.5 52.5 0 27-14 51.5-42 73.5-26 22-62.5 41.5-109.5 58.5-47 16-95.5 24-145.5 24Zm1016.77 0c-76 0-147-14-213-42s-124-66.5-174-115.5c-50-50-89.5-107.5-118.5-172.5-28-65-42-135-42-210s14-145 42-210c29-65 68.5-122 118.5-171 50-50 108-89 174-117s137-42 213-42c47 0 92.5 5 136.5 15s84.5 25 121.5 45c15 8 26 19 33 33 8 13 12 26.5 12 40.5 0 24-8 45.5-24 64.5s-36.5 28.5-61.5 28.5c-8 0-16.5-1-25.5-3-8-2-16-5-24-9-25-11-51.5-19.5-79.5-25.5s-57.5-9-88.5-9c-65 0-124.5 16.5-178.5 49.5-53 32-95.5 75.5-127.5 130.5-31 54-46.5 114-46.5 180 0 65 15.5 125 46.5 180 32 55 74.5 99 127.5 132 54 32 113.5 48 178.5 48 30 0 63-3 99-9s65.5-14 88.5-24l-13.5 45v-256.5l25.5 22.5h-166.5c-26 0-48-8.5-66-25.5-17-17-25.5-38.5-25.5-64.5s8.5-47.5 25.5-64.5c18-17 40-25.5 66-25.5h246c26 0 47.5 9 64.5 27 17 17 25.5 38.5 25.5 64.5v318c0 20-5 36.5-15 49.5-9 13-19.5 23.5-31.5 31.5-46 28-96.5 50.5-151.5 67.5-54 16-111 24-171 24Z"></path>
        </g>
        <defs fill="none">
            <filter color-interpolation-filters="sRGB" filterUnits="userSpaceOnUse" height="1704.7" width="677.135" y="751" x="7459" id="svgcid--t0v6g7-4qcut8">
                <feFlood result="BackgroundImageFix" flood-opacity="0"></feFlood>
                <feBlend result="shape" in2="BackgroundImageFix" in="SourceGraphic"></feBlend>
                <feColorMatrix result="hardAlpha" values="0 0 0 0 0 0 0 0 0 0 0 0 0 0 0 0 0 0 127 0" in="SourceAlpha"></feColorMatrix>
                <feOffset dy="30"></feOffset>
                <feGaussianBlur stdDeviation="12.5"></feGaussianBlur>
                <feComposite k3="1" k2="-1" operator="arithmetic" in2="hardAlpha"></feComposite>
                <feColorMatrix values="0 0 0 0 0 0 0 0 0 0 0 0 0 0 0 0 0 0 0.25 0"></feColorMatrix>
                <feBlend result="effect1_innerShadow_207_1361" in2="shape"></feBlend>
            </filter>
            <filter color-interpolation-filters="sRGB" filterUnits="userSpaceOnUse" height="1273" width="676" y="1183" x="6646" id="svgcid--xpahquezcs0d">
                <feFlood result="BackgroundImageFix" flood-opacity="0"></feFlood>
                <feBlend result="shape" in2="BackgroundImageFix" in="SourceGraphic"></feBlend>
                <feColorMatrix result="hardAlpha" values="0 0 0 0 0 0 0 0 0 0 0 0 0 0 0 0 0 0 127 0" in="SourceAlpha"></feColorMatrix>
                <feOffset dy="30"></feOffset>
                <feGaussianBlur stdDeviation="12.5"></feGaussianBlur>
                <feComposite k3="1" k2="-1" operator="arithmetic" in2="hardAlpha"></feComposite>
                <feColorMatrix values="0 0 0 0 0 0 0 0 0 0 0 0 0 0 0 0 0 0 0.25 0"></feColorMatrix>
                <feBlend result="effect1_innerShadow_207_1361" in2="shape"></feBlend>
            </filter>
            <filter color-interpolation-filters="sRGB" filterUnits="userSpaceOnUse" height="1110" width="683" y="1346" x="5827" id="svgcid-vwhs4z-q3mgtc">
                <feFlood result="BackgroundImageFix" flood-opacity="0"></feFlood>
                <feBlend result="shape" in2="BackgroundImageFix" in="SourceGraphic"></feBlend>
                <feColorMatrix result="hardAlpha" values="0 0 0 0 0 0 0 0 0 0 0 0 0 0 0 0 0 0 127 0" in="SourceAlpha"></feColorMatrix>
                <feOffset dy="30"></feOffset>
                <feGaussianBlur stdDeviation="12.5"></feGaussianBlur>
                <feComposite k3="1" k2="-1" operator="arithmetic" in2="hardAlpha"></feComposite>
                <feColorMatrix values="0 0 0 0 0 0 0 0 0 0 0 0 0 0 0 0 0 0 0.25 0"></feColorMatrix>
                <feBlend result="effect1_innerShadow_207_1361" in2="shape"></feBlend>
            </filter>
            <filter color-interpolation-filters="sRGB" filterUnits="userSpaceOnUse" height="1425" width="2769.02" y="0" x="5804" id="svgcid--6fhjo2loub7p">
                <feFlood result="BackgroundImageFix" flood-opacity="0"></feFlood>
                <feColorMatrix result="hardAlpha" values="0 0 0 0 0 0 0 0 0 0 0 0 0 0 0 0 0 0 127 0" in="SourceAlpha"></feColorMatrix>
                <feOffset dy="10"></feOffset>
                <feGaussianBlur stdDeviation="12.5"></feGaussianBlur>
                <feComposite operator="out" in2="hardAlpha"></feComposite>
                <feColorMatrix values="0 0 0 0 0 0 0 0 0 0 0 0 0 0 0 0 0 0 0.25 0"></feColorMatrix>
                <feBlend result="effect1_dropShadow_207_1361" in2="BackgroundImageFix"></feBlend>
                <feBlend result="shape" in2="effect1_dropShadow_207_1361" in="SourceGraphic"></feBlend>
            </filter>
            <filter color-interpolation-filters="sRGB" filterUnits="userSpaceOnUse" height="1525" width="5582.48" y="1121" x="0" id="svgcid-a69ct5-er3o2t">
                <feFlood result="BackgroundImageFix" flood-opacity="0"></feFlood>
                <feColorMatrix result="hardAlpha" values="0 0 0 0 0 0 0 0 0 0 0 0 0 0 0 0 0 0 127 0" in="SourceAlpha"></feColorMatrix>
                <feOffset></feOffset>
                <feGaussianBlur stdDeviation="100"></feGaussianBlur>
                <feComposite operator="out" in2="hardAlpha"></feComposite>
                <feColorMatrix values="0 0 0 0 0.886463 0 0 0 0 0.886463 0 0 0 0 0.886463 0 0 0 1 0"></feColorMatrix>
                <feBlend result="effect1_dropShadow_207_1361" in2="BackgroundImageFix"></feBlend>
                <feBlend result="shape" in2="effect1_dropShadow_207_1361" in="SourceGraphic"></feBlend>
            </filter>
        </defs>
    </g>
</svg>
